<svg width="364" height="64" viewBox="0 0 364 64" fill="none" xmlns="http://www.w3.org/2000/svg">
<path opacity="0.9" d="M2.655 48H13.23V39.99H27.945C36 39.99 40.905 35.445 40.905 27.84C40.905 20.19 36 15.69 27.945 15.69H2.655V48ZM13.23 31.125V24.6H25.425C28.44 24.6 29.88 25.185 29.88 27.84C29.88 30.495 28.44 31.125 25.425 31.125H13.23ZM45.3698 48H55.9448V38.865H70.6598C73.5398 38.865 74.3498 39.72 74.3498 42.6V48H84.9248V40.89C84.9248 36.93 82.3148 34.545 78.1748 34.275C82.5398 32.97 84.9698 30.045 84.9698 25.59C84.9698 19.065 80.5598 15.69 71.6948 15.69H45.3698V48ZM55.9448 30.405V24.15H69.1748C72.0098 24.15 73.9448 24.645 73.9448 27.255C73.9448 29.865 72.0098 30.405 69.1748 30.405H55.9448ZM111.456 48.9C125.271 48.9 134.136 42.195 134.136 31.845C134.136 21.585 125.271 14.925 111.456 14.925C97.7312 14.925 88.8212 21.585 88.8212 31.845C88.8212 42.195 97.7312 48.9 111.456 48.9ZM99.8462 31.845C99.8462 26.985 104.346 23.79 111.456 23.79C118.611 23.79 123.156 26.985 123.156 31.845C123.156 36.75 118.611 39.99 111.456 39.99C104.391 39.99 99.8462 36.75 99.8462 31.845ZM138.622 48H161.707C171.067 48 177.862 41.16 177.862 31.8C177.862 22.44 171.067 15.69 161.707 15.69H138.622V48ZM149.197 39.09V24.6H157.432C163.822 24.6 166.927 26.985 166.927 31.8C166.927 36.66 163.822 39.09 157.432 39.09H149.197ZM204.622 48.9C212.092 48.9 220.057 47.145 225.007 43.905V29.955H203.092V36.525H216.502V38.1C213.037 39.45 208.942 39.945 205.252 39.945C197.557 39.945 192.967 37.11 192.967 32.025C192.967 27.3 197.062 23.88 203.992 23.88C209.347 23.88 213.082 25.68 213.667 27.66H225.007C224.467 20.1 216.142 14.925 203.902 14.925C190.537 14.925 181.852 21.63 181.852 32.025C181.852 42.285 190.807 48.9 204.622 48.9ZM229.852 48H240.427V38.865H255.142C258.022 38.865 258.832 39.72 258.832 42.6V48H269.407V40.89C269.407 36.93 266.797 34.545 262.657 34.275C267.022 32.97 269.452 30.045 269.452 25.59C269.452 19.065 265.042 15.69 256.177 15.69H229.852V48ZM240.427 30.405V24.15H253.657C256.492 24.15 258.427 24.645 258.427 27.255C258.427 29.865 256.492 30.405 253.657 30.405H240.427ZM273.479 48H284.729L287.609 42.015H305.924L308.759 48H320.054L303.539 15.69H290.039L273.479 48ZM291.209 34.41L296.744 22.845L302.279 34.41H291.209ZM329.966 48H345.041L360.836 15.69H349.541L337.526 40.845L325.511 15.69H314.261L329.966 48Z" fill="#2E3535"/>
</svg>
